<svg width="1280" height="720" viewBox="0 0 1280 720" fill="none" xmlns="http://www.w3.org/2000/svg">
  <rect width="1280" height="720" rx="32" fill="#F3F7F4"/>
  <rect x="40" y="32" width="1200" height="118" rx="28" fill="#10201B"/>
  <text x="76" y="78" fill="#FFFFFF" font-family="Inter, Arial, sans-serif" font-size="34" font-weight="700">Carbon Commit Dashboard</text>
  <text x="76" y="114" fill="#CFE0D7" font-family="Inter, Arial, sans-serif" font-size="16">Refined campus sustainability view with notifications, data entry, and live ranking</text>

  <rect x="40" y="172" width="1200" height="122" rx="26" fill="#FFFFFF" stroke="#DDE6E1"/>
  <text x="72" y="212" fill="#173127" font-family="Inter, Arial, sans-serif" font-size="20" font-weight="700">Notification Center</text>
  <text x="72" y="240" fill="#5E6F67" font-family="Inter, Arial, sans-serif" font-size="14">Collapsible alerts for quota breaches, recent submissions, and sync status</text>
  <rect x="1038" y="196" width="176" height="34" rx="17" fill="#EAF4ED"/>
  <text x="1060" y="218" fill="#1F4B35" font-family="Inter, Arial, sans-serif" font-size="13" font-weight="700">3 visible notifications</text>

  <rect x="40" y="318" width="740" height="168" rx="28" fill="#FFFFFF" stroke="#DDE6E1"/>
  <text x="72" y="358" fill="#173127" font-family="Inter, Arial, sans-serif" font-size="18" font-weight="700">Data Entry</text>
  <text x="72" y="384" fill="#5E6F67" font-family="Inter, Arial, sans-serif" font-size="14">Submit a department activity and calculate CO2e automatically</text>
  <rect x="72" y="406" width="214" height="42" rx="14" fill="#F8FAF9" stroke="#E4ECE7"/>
  <rect x="302" y="406" width="214" height="42" rx="14" fill="#F8FAF9" stroke="#E4ECE7"/>
  <rect x="532" y="406" width="216" height="42" rx="14" fill="#F8FAF9" stroke="#E4ECE7"/>
  <rect x="72" y="464" width="148" height="34" rx="14" fill="#10201B"/>
  <text x="96" y="486" fill="#FFFFFF" font-family="Inter, Arial, sans-serif" font-size="13" font-weight="700">Record Activity</text>

  <rect x="812" y="318" width="428" height="168" rx="28" fill="#FFFFFF" stroke="#DDE6E1"/>
  <text x="844" y="358" fill="#173127" font-family="Inter, Arial, sans-serif" font-size="18" font-weight="700">Leaderboard</text>
  <text x="844" y="384" fill="#5E6F67" font-family="Inter, Arial, sans-serif" font-size="14">Departments ranked by current emissions</text>
  <rect x="844" y="404" width="364" height="34" rx="12" fill="#EAF4ED"/>
  <rect x="844" y="446" width="364" height="34" rx="12" fill="#F8FAF9"/>

  <rect x="40" y="518" width="1200" height="162" rx="28" fill="#FFFFFF" stroke="#DDE6E1"/>
  <text x="72" y="558" fill="#173127" font-family="Inter, Arial, sans-serif" font-size="18" font-weight="700">Emission Trend</text>
  <text x="72" y="584" fill="#5E6F67" font-family="Inter, Arial, sans-serif" font-size="14">Vertical per-department comparison so current load and baseline stay readable</text>
  <rect x="72" y="606" width="1050" height="18" rx="9" fill="#E4ECE7"/>
  <rect x="72" y="606" width="720" height="18" rx="9" fill="#4A7A61"/>
  <rect x="72" y="632" width="960" height="18" rx="9" fill="#E4ECE7"/>
  <rect x="72" y="632" width="620" height="18" rx="9" fill="#E29A2A"/>
  <rect x="72" y="658" width="840" height="18" rx="9" fill="#E4ECE7"/>
  <rect x="72" y="658" width="540" height="18" rx="9" fill="#BFD8C8"/>
</svg>
