<svg width="1280" height="720" viewBox="0 0 1280 720" fill="none" xmlns="http://www.w3.org/2000/svg">
  <defs>
    <linearGradient id="bg" x1="0" y1="0" x2="1" y2="1">
      <stop offset="0%" stop-color="#0F172A"/>
      <stop offset="55%" stop-color="#134E4A"/>
      <stop offset="100%" stop-color="#1E293B"/>
    </linearGradient>
    <linearGradient id="card" x1="0" y1="0" x2="1" y2="1">
      <stop offset="0%" stop-color="rgba(255,255,255,0.12)"/>
      <stop offset="100%" stop-color="rgba(255,255,255,0.06)"/>
    </linearGradient>
  </defs>
  <rect width="1280" height="720" rx="32" fill="url(#bg)"/>

  <rect x="92" y="48" width="1096" height="624" rx="32" fill="rgba(255,255,255,0.04)" stroke="rgba(255,255,255,0.12)"/>
  <rect x="124" y="88" width="1032" height="96" rx="26" fill="rgba(255,255,255,0.06)" stroke="rgba(255,255,255,0.12)"/>
  <text x="160" y="130" fill="#FFFFFF" font-family="Inter, Arial, sans-serif" font-size="34" font-weight="700">Profile Settings</text>
  <text x="160" y="160" fill="#D7EDE7" font-family="Inter, Arial, sans-serif" font-size="16">Edit metadata, avatar, and credentials for the current Supabase account</text>
  <rect x="1030" y="114" width="96" height="44" rx="22" fill="#10B981"/>
  <text x="1056" y="142" fill="#052E1B" font-family="Inter, Arial, sans-serif" font-size="14" font-weight="700">Save</text>

  <rect x="124" y="212" width="494" height="424" rx="30" fill="url(#card)" stroke="rgba(255,255,255,0.12)"/>
  <text x="156" y="254" fill="#FFFFFF" font-family="Inter, Arial, sans-serif" font-size="22" font-weight="700">General Info</text>
  <text x="156" y="282" fill="#CFE0D7" font-family="Inter, Arial, sans-serif" font-size="14">Saved to user metadata and synced back to the dashboard</text>

  <rect x="156" y="310" width="430" height="116" rx="22" fill="rgba(255,255,255,0.08)" stroke="rgba(255,255,255,0.18)" stroke-dasharray="8 8"/>
  <text x="186" y="352" fill="#FFFFFF" font-family="Inter, Arial, sans-serif" font-size="16" font-weight="600">Profile Picture</text>
  <text x="186" y="380" fill="#D7EDE7" font-family="Inter, Arial, sans-serif" font-size="13">Drop image here or choose a file</text>
  <rect x="186" y="396" width="124" height="28" rx="14" fill="rgba(255,255,255,0.12)" stroke="rgba(255,255,255,0.2)"/>
  <text x="208" y="415" fill="#FFFFFF" font-family="Inter, Arial, sans-serif" font-size="11" font-weight="700">Choose Image</text>

  <rect x="156" y="450" width="200" height="58" rx="18" fill="#FFFFFF"/>
  <text x="176" y="472" fill="#0F172A" font-family="Inter, Arial, sans-serif" font-size="12" font-weight="700">Full name</text>
  <text x="176" y="494" fill="#334155" font-family="Inter, Arial, sans-serif" font-size="16">Kunwarpreet Singh</text>

  <rect x="386" y="450" width="200" height="58" rx="18" fill="#FFFFFF"/>
  <text x="406" y="472" fill="#0F172A" font-family="Inter, Arial, sans-serif" font-size="12" font-weight="700">Department</text>
  <text x="406" y="494" fill="#334155" font-family="Inter, Arial, sans-serif" font-size="16">Computer Science</text>

  <rect x="156" y="522" width="200" height="58" rx="18" fill="#FFFFFF"/>
  <text x="176" y="544" fill="#0F172A" font-family="Inter, Arial, sans-serif" font-size="12" font-weight="700">Title / Role</text>
  <text x="176" y="566" fill="#334155" font-family="Inter, Arial, sans-serif" font-size="16">Student</text>

  <rect x="386" y="522" width="200" height="58" rx="18" fill="#FFFFFF"/>
  <text x="406" y="544" fill="#0F172A" font-family="Inter, Arial, sans-serif" font-size="12" font-weight="700">Phone</text>
  <text x="406" y="566" fill="#334155" font-family="Inter, Arial, sans-serif" font-size="16">9463370027</text>

  <rect x="650" y="212" width="468" height="424" rx="30" fill="rgba(255,255,255,0.04)" stroke="rgba(255,255,255,0.12)"/>
  <text x="682" y="254" fill="#FFFFFF" font-family="Inter, Arial, sans-serif" font-size="22" font-weight="700">Security</text>
  <text x="682" y="282" fill="#CFE0D7" font-family="Inter, Arial, sans-serif" font-size="14">Email and password updates are handled through Supabase Auth</text>

  <rect x="682" y="312" width="404" height="58" rx="18" fill="rgba(255,255,255,0.9)"/>
  <text x="702" y="334" fill="#0F172A" font-family="Inter, Arial, sans-serif" font-size="12" font-weight="700">Email</text>
  <text x="702" y="356" fill="#334155" font-family="Inter, Arial, sans-serif" font-size="15">name@tiet.edu</text>

  <rect x="682" y="386" width="404" height="58" rx="18" fill="rgba(255,255,255,0.9)"/>
  <text x="702" y="408" fill="#0F172A" font-family="Inter, Arial, sans-serif" font-size="12" font-weight="700">New password</text>
  <text x="702" y="430" fill="#334155" font-family="Inter, Arial, sans-serif" font-size="15">Leave blank to keep current password</text>

  <rect x="682" y="460" width="404" height="58" rx="18" fill="rgba(255,255,255,0.9)"/>
  <text x="702" y="482" fill="#0F172A" font-family="Inter, Arial, sans-serif" font-size="12" font-weight="700">Confirm new password</text>
  <text x="702" y="504" fill="#334155" font-family="Inter, Arial, sans-serif" font-size="15">Repeat the new password</text>

  <rect x="682" y="536" width="404" height="46" rx="16" fill="rgba(15,23,42,0.35)" stroke="rgba(255,255,255,0.12)"/>
  <text x="702" y="564" fill="#D7EDE7" font-family="Inter, Arial, sans-serif" font-size="13">Profile changes refresh the dashboard after saving</text>
</svg>
